<svg width="1512" height="600" viewBox="0 0 1512 600" fill="none" xmlns="http://www.w3.org/2000/svg">
<path opacity="0.2" d="M0 39.5001C0 39.5001 313.604 127 757.751 39.5001C1201.9 -47.9999 1512 39.5001 1512 39.5001" stroke="url(#paint0_linear_4_31)"/>
<path opacity="0.2" d="M0 239.889C0 239.889 313.604 327.389 757.751 239.889C1201.9 152.389 1512 239.889 1512 239.889" stroke="url(#paint1_linear_4_31)"/>
<path opacity="0.2" d="M0 439.889C0 439.889 313.604 527.389 757.751 439.889C1201.9 352.389 1512 439.889 1512 439.889" stroke="url(#paint2_linear_4_31)"/>
<path opacity="0.2" d="M0 79.8889C0 79.8889 313.604 167.389 757.751 79.8889C1201.9 -7.61107 1512 79.8889 1512 79.8889" stroke="url(#paint3_linear_4_31)"/>
<path opacity="0.2" d="M0 279.889C0 279.889 313.604 367.389 757.751 279.889C1201.9 192.389 1512 279.889 1512 279.889" stroke="url(#paint4_linear_4_31)"/>
<path opacity="0.2" d="M0 479.889C0 479.889 313.604 567.389 757.751 479.889C1201.9 392.389 1512 479.889 1512 479.889" stroke="url(#paint5_linear_4_31)"/>
<path opacity="0.2" d="M0 119.889C0 119.889 313.604 207.389 757.751 119.889C1201.9 32.3889 1512 119.889 1512 119.889" stroke="url(#paint6_linear_4_31)"/>
<path opacity="0.2" d="M0 319.889C0 319.889 313.604 407.389 757.751 319.889C1201.9 232.389 1512 319.889 1512 319.889" stroke="url(#paint7_linear_4_31)"/>
<path opacity="0.2" d="M0 519.889C0 519.889 313.604 607.389 757.751 519.889C1201.9 432.389 1512 519.889 1512 519.889" stroke="url(#paint8_linear_4_31)"/>
<path opacity="0.2" d="M0 159.889C0 159.889 313.604 247.389 757.751 159.889C1201.9 72.3889 1512 159.889 1512 159.889" stroke="url(#paint9_linear_4_31)"/>
<path opacity="0.2" d="M0 359.889C0 359.889 313.604 447.389 757.751 359.889C1201.9 272.389 1512 359.889 1512 359.889" stroke="url(#paint10_linear_4_31)"/>
<path opacity="0.2" d="M0 559.889C0 559.889 313.604 647.389 757.751 559.889C1201.9 472.389 1512 559.889 1512 559.889" stroke="url(#paint11_linear_4_31)"/>
<path opacity="0.2" d="M0 199.889C0 199.889 313.604 287.389 757.751 199.889C1201.9 112.389 1512 199.889 1512 199.889" stroke="url(#paint12_linear_4_31)"/>
<path opacity="0.2" d="M0 399.889C0 399.889 313.604 487.389 757.751 399.889C1201.9 312.389 1512 399.889 1512 399.889" stroke="url(#paint13_linear_4_31)"/>
<defs>
<linearGradient id="paint0_linear_4_31" x1="6.45335e-07" y1="39.5001" x2="1512" y2="39.5" gradientUnits="userSpaceOnUse">
<stop stop-color="#F41ED2"/>
<stop offset="1" stop-color="#1E5AF4"/>
</linearGradient>
<linearGradient id="paint1_linear_4_31" x1="6.45335e-07" y1="239.889" x2="1512" y2="239.889" gradientUnits="userSpaceOnUse">
<stop stop-color="#F41ED2"/>
<stop offset="1" stop-color="#1E5AF4"/>
</linearGradient>
<linearGradient id="paint2_linear_4_31" x1="6.45335e-07" y1="439.889" x2="1512" y2="439.889" gradientUnits="userSpaceOnUse">
<stop stop-color="#F41ED2"/>
<stop offset="1" stop-color="#1E5AF4"/>
</linearGradient>
<linearGradient id="paint3_linear_4_31" x1="6.45335e-07" y1="79.8889" x2="1512" y2="79.8888" gradientUnits="userSpaceOnUse">
<stop stop-color="#F41ED2"/>
<stop offset="1" stop-color="#1E5AF4"/>
</linearGradient>
<linearGradient id="paint4_linear_4_31" x1="6.45335e-07" y1="279.889" x2="1512" y2="279.889" gradientUnits="userSpaceOnUse">
<stop stop-color="#F41ED2"/>
<stop offset="1" stop-color="#1E5AF4"/>
</linearGradient>
<linearGradient id="paint5_linear_4_31" x1="6.45335e-07" y1="479.889" x2="1512" y2="479.889" gradientUnits="userSpaceOnUse">
<stop stop-color="#F41ED2"/>
<stop offset="1" stop-color="#1E5AF4"/>
</linearGradient>
<linearGradient id="paint6_linear_4_31" x1="6.45335e-07" y1="119.889" x2="1512" y2="119.889" gradientUnits="userSpaceOnUse">
<stop stop-color="#F41ED2"/>
<stop offset="1" stop-color="#1E5AF4"/>
</linearGradient>
<linearGradient id="paint7_linear_4_31" x1="6.45335e-07" y1="319.889" x2="1512" y2="319.889" gradientUnits="userSpaceOnUse">
<stop stop-color="#F41ED2"/>
<stop offset="1" stop-color="#1E5AF4"/>
</linearGradient>
<linearGradient id="paint8_linear_4_31" x1="6.45335e-07" y1="519.889" x2="1512" y2="519.889" gradientUnits="userSpaceOnUse">
<stop stop-color="#F41ED2"/>
<stop offset="1" stop-color="#1E5AF4"/>
</linearGradient>
<linearGradient id="paint9_linear_4_31" x1="6.45335e-07" y1="159.889" x2="1512" y2="159.889" gradientUnits="userSpaceOnUse">
<stop stop-color="#F41ED2"/>
<stop offset="1" stop-color="#1E5AF4"/>
</linearGradient>
<linearGradient id="paint10_linear_4_31" x1="6.45335e-07" y1="359.889" x2="1512" y2="359.889" gradientUnits="userSpaceOnUse">
<stop stop-color="#F41ED2"/>
<stop offset="1" stop-color="#1E5AF4"/>
</linearGradient>
<linearGradient id="paint11_linear_4_31" x1="6.45335e-07" y1="559.889" x2="1512" y2="559.889" gradientUnits="userSpaceOnUse">
<stop stop-color="#F41ED2"/>
<stop offset="1" stop-color="#1E5AF4"/>
</linearGradient>
<linearGradient id="paint12_linear_4_31" x1="6.45335e-07" y1="199.889" x2="1512" y2="199.889" gradientUnits="userSpaceOnUse">
<stop stop-color="#F41ED2"/>
<stop offset="1" stop-color="#1E5AF4"/>
</linearGradient>
<linearGradient id="paint13_linear_4_31" x1="6.45335e-07" y1="399.889" x2="1512" y2="399.889" gradientUnits="userSpaceOnUse">
<stop stop-color="#F41ED2"/>
<stop offset="1" stop-color="#1E5AF4"/>
</linearGradient>
</defs>
</svg>
