<svg width="577" height="544" viewBox="0 0 577 544" fill="none" xmlns="http://www.w3.org/2000/svg">
<g opacity="0.1">
<path d="M65.6805 144.985H121.567L168.6 64.7523C170.813 61.211 173.948 60.3256 175.24 60.3256H400.998C404.096 59.883 406.346 61.9856 407.084 63.0923L509.45 239.604C512.991 246.244 517.565 249.011 519.41 249.564H571.976C577.731 247.793 577.325 242.186 576.403 239.604L443.604 9.97273C439.62 1.56213 433.828 -0.171628 431.431 0.0128147H144.253C139.384 1.3408 135.953 5.36166 134.847 7.20608L60.1472 136.132C60.1472 142.772 63.8361 144.8 65.6805 144.985Z" fill="url(#paint0_linear_2_47)"/>
<path d="M0.387732 239.604C-1.38292 245.801 3.33882 248.826 5.92102 249.564L178.559 250.117C181.215 250.56 183.355 248.088 184.093 246.797L228.359 170.438C229.687 166.897 232.97 165.642 234.446 165.458C268.199 165.642 336.701 165.901 340.685 165.458C344.669 165.015 346.771 167.118 347.325 168.225L393.251 246.244C394.136 248.457 395.833 249.38 396.571 249.564H450.797C457.437 247.793 456.884 241.817 455.777 239.051L382.738 112.892C379.196 107.137 374.991 105.699 373.331 105.699H202.353C200.139 105.256 197.742 108.096 196.819 109.572L153.106 184.825C151.336 187.923 149.786 188.698 149.233 188.698H34.1407C31.0421 188.698 29.1608 190.542 28.6075 191.464L0.387732 239.604Z" fill="url(#paint1_linear_2_47)"/>
</g>
<g opacity="0.1">
<path d="M511.264 399.015H455.378L408.345 479.248C406.131 482.789 402.996 483.674 401.705 483.674H175.947C172.848 484.117 170.598 482.014 169.86 480.908L67.4944 304.396C63.9532 297.756 59.3789 294.989 57.5345 294.436H4.96836C-0.78622 296.207 -0.380459 301.814 0.541721 304.396L133.341 534.027C137.324 542.438 143.116 544.172 145.514 543.987H432.691C437.561 542.659 440.991 538.638 442.098 536.794L516.797 407.868C516.797 401.228 513.108 399.2 511.264 399.015Z" fill="#E92AED"/>
<path d="M576.557 304.396C578.327 298.199 573.606 295.174 571.023 294.436L398.385 293.883C395.729 293.44 393.589 295.912 392.852 297.203L348.585 373.562C347.257 377.103 343.974 378.358 342.499 378.542C308.746 378.358 240.244 378.099 236.26 378.542C232.276 378.985 230.173 376.882 229.62 375.775L183.693 297.756C182.808 295.543 181.111 294.621 180.373 294.436H126.147C119.507 296.207 120.061 302.183 121.167 304.949L194.207 431.108C197.748 436.863 201.953 438.301 203.613 438.301H374.592C376.805 438.744 379.203 435.904 380.125 434.428L423.838 359.175C425.609 356.077 427.158 355.302 427.711 355.302H542.804C545.902 355.302 547.784 353.458 548.337 352.536L576.557 304.396Z" fill="#E92AED"/>
</g>
<defs>
<linearGradient id="paint0_linear_2_47" x1="2.46245e-07" y1="125.085" x2="576.944" y2="125.085" gradientUnits="userSpaceOnUse">
<stop stop-color="#F41ED2"/>
<stop offset="1" stop-color="#1E5AF4"/>
</linearGradient>
<linearGradient id="paint1_linear_2_47" x1="2.46245e-07" y1="125.085" x2="576.944" y2="125.085" gradientUnits="userSpaceOnUse">
<stop stop-color="#F41ED2"/>
<stop offset="1" stop-color="#1E5AF4"/>
</linearGradient>
</defs>
</svg>
