<svg width="288" height="20" viewBox="0 0 288 20" fill="none" xmlns="http://www.w3.org/2000/svg">
<path opacity="0.2" d="M54 0.258026L57.09 6.47182L64 7.47437L59 12.3084L60.18 19.1376L54 15.9116L47.82 19.1376L49 12.3084L44 7.47437L50.91 6.47182L54 0.258026Z" fill="#424A55"/>
<path opacity="0.2" d="M188 0.258026L191.09 6.47182L198 7.47437L193 12.3084L194.18 19.1376L188 15.9116L181.82 19.1376L183 12.3084L178 7.47437L184.91 6.47182L188 0.258026Z" fill="#424A55"/>
<path opacity="0.2" d="M144 0.258026L147.09 6.47182L154 7.47437L149 12.3084L150.18 19.1376L144 15.9116L137.82 19.1376L139 12.3084L134 7.47437L140.91 6.47182L144 0.258026Z" fill="#424A55"/>
<path opacity="0.2" d="M278 0.258026L281.09 6.47182L288 7.47437L283 12.3084L284.18 19.1376L278 15.9116L271.82 19.1376L273 12.3084L268 7.47437L274.91 6.47182L278 0.258026Z" fill="#424A55"/>
<path opacity="0.2" d="M10 0.258026L13.09 6.47182L20 7.47437L15 12.3084L16.18 19.1376L10 15.9116L3.82 19.1376L5 12.3084L0 7.47437L6.91 6.47182L10 0.258026Z" fill="#424A55"/>
<path opacity="0.2" d="M100 0.258026L103.09 6.47182L110 7.47437L105 12.3084L106.18 19.1376L100 15.9116L93.82 19.1376L95 12.3084L90 7.47437L96.91 6.47182L100 0.258026Z" fill="#424A55"/>
<path opacity="0.2" d="M234 0.258026L237.09 6.47182L244 7.47437L239 12.3084L240.18 19.1376L234 15.9116L227.82 19.1376L229 12.3084L224 7.47437L230.91 6.47182L234 0.258026Z" fill="#424A55"/>
</svg>
