<svg width="24" height="23" viewBox="0 0 24 23" fill="none" xmlns="http://www.w3.org/2000/svg">
<path d="M2.73221 6.03114H5.05698L7.01348 2.69359C7.10555 2.54628 7.23598 2.50945 7.28969 2.50945H16.6809C16.8098 2.49104 16.9034 2.5785 16.9341 2.62454L21.1923 9.96715C21.3396 10.2434 21.5299 10.3585 21.6066 10.3815H23.7933C24.0327 10.3078 24.0158 10.0746 23.9774 9.96715L18.4532 0.41485C18.2875 0.0649823 18.0466 -0.00713946 17.9468 0.000533072H6.0007C5.79815 0.0557753 5.65544 0.223036 5.60941 0.299762L2.50203 5.66286C2.50203 5.93907 2.65548 6.02347 2.73221 6.03114Z" fill="url(#paint0_linear_2_25)"/>
<path d="M0.016129 9.96715C-0.0575273 10.2249 0.13889 10.3508 0.246305 10.3815L7.42779 10.4045C7.53828 10.4229 7.62728 10.3201 7.65797 10.2664L9.49938 7.08995C9.55462 6.94264 9.69119 6.89047 9.75257 6.88279C11.1566 6.89047 14.0062 6.90121 14.172 6.88279C14.3377 6.86438 14.4251 6.95185 14.4482 6.99788L16.3586 10.2434C16.3955 10.3354 16.466 10.3738 16.4967 10.3815H18.7525C19.0287 10.3078 19.0056 10.0592 18.9596 9.94413L15.9213 4.69612C15.774 4.45674 15.599 4.39689 15.53 4.39689H8.41755C8.32548 4.37848 8.22574 4.49664 8.18738 4.55802L6.36899 7.68841C6.29533 7.81731 6.23088 7.84953 6.20786 7.84953H1.4202C1.2913 7.84953 1.21304 7.92626 1.19003 7.96462L0.016129 9.96715Z" fill="url(#paint1_linear_2_25)"/>
<path d="M21.2678 16.5984H18.943L16.9865 19.9359C16.8945 20.0832 16.764 20.1201 16.7103 20.1201H7.31913C7.19023 20.1385 7.09663 20.051 7.06594 20.005L2.80768 12.6624C2.66037 12.3862 2.47009 12.2711 2.39337 12.248H0.206695C-0.0326886 12.3217 -0.0158086 12.5549 0.0225539 12.6624L5.54678 22.2147C5.7125 22.5645 5.95342 22.6367 6.05316 22.629H17.9993C18.2019 22.5737 18.3446 22.4065 18.3906 22.3298L21.498 16.9667C21.498 16.6904 21.3445 16.606 21.2678 16.5984Z" fill="url(#paint2_linear_2_25)"/>
<path d="M23.9839 12.6624C24.0575 12.4046 23.8611 12.2787 23.7537 12.248L16.5722 12.225C16.4617 12.2066 16.3727 12.3094 16.342 12.3631L14.5006 15.5396C14.4454 15.6869 14.3088 15.739 14.2474 15.7467C12.8434 15.739 9.99378 15.7283 9.82805 15.7467C9.66232 15.7651 9.57486 15.6777 9.55184 15.6316L7.64138 12.3862C7.60455 12.2941 7.53396 12.2557 7.50327 12.248H5.24755C4.97134 12.3217 4.99436 12.5703 5.04039 12.6854L8.07871 17.9334C8.22602 18.1728 8.40096 18.2326 8.47001 18.2326H15.5824C15.6745 18.251 15.7743 18.1329 15.8126 18.0715L17.631 14.9411C17.7047 14.8122 17.7691 14.78 17.7921 14.78H22.5798C22.7087 14.78 22.787 14.7033 22.81 14.6649L23.9839 12.6624Z" fill="url(#paint3_linear_2_25)"/>
<defs>
<linearGradient id="paint0_linear_2_25" x1="12" y1="1.55071e-07" x2="12" y2="10.4067" gradientUnits="userSpaceOnUse">
<stop stop-color="#FE6B2E"/>
<stop offset="1" stop-color="#FE472E"/>
</linearGradient>
<linearGradient id="paint1_linear_2_25" x1="12" y1="1.55071e-07" x2="12" y2="10.4067" gradientUnits="userSpaceOnUse">
<stop stop-color="#FE6B2E"/>
<stop offset="1" stop-color="#FE472E"/>
</linearGradient>
<linearGradient id="paint2_linear_2_25" x1="12" y1="22.6295" x2="12" y2="12.2229" gradientUnits="userSpaceOnUse">
<stop stop-color="#FE6B2E"/>
<stop offset="1" stop-color="#FE472E"/>
</linearGradient>
<linearGradient id="paint3_linear_2_25" x1="12" y1="22.6295" x2="12" y2="12.2229" gradientUnits="userSpaceOnUse">
<stop stop-color="#FE6B2E"/>
<stop offset="1" stop-color="#FE472E"/>
</linearGradient>
</defs>
</svg>
