<svg width="132" height="28" viewBox="0 0 132 28" fill="none" xmlns="http://www.w3.org/2000/svg">
<g clip-path="url(#clip0_7_98)">
<path fill-rule="evenodd" clip-rule="evenodd" d="M49.1628 13.8526L46.7785 13.3368C45.568 13.0789 44.9077 12.3421 44.9077 11.2368C44.9077 9.83682 46.1182 8.80524 47.7689 8.80524C50.0065 8.80524 50.6668 10.4631 50.8502 10.9789C50.8869 11.1631 50.997 11.3105 51.1804 11.3842C51.3271 11.4579 51.5105 11.4579 51.6572 11.421L52.9044 10.9789C53.2346 10.8684 53.3813 10.5368 53.3079 10.2052C52.9778 9.06313 51.7673 6.37366 47.7322 6.37366C44.7243 6.37366 42.1933 8.69471 42.1933 11.421C42.1933 13.7789 43.7339 15.5105 46.3016 16.0631L48.5759 16.5789C49.9699 16.8737 50.7769 17.721 50.7769 18.8263C50.7769 20.2631 49.603 21.1473 47.7322 21.1473C45.5313 21.1473 44.4675 19.6737 44.1741 18.3105C44.1007 17.9789 43.7706 17.7579 43.4404 17.7947C43.4038 17.7947 43.4038 17.7947 43.3671 17.8316L41.9732 18.2737C41.6797 18.3842 41.4963 18.6789 41.533 18.9737C41.9732 21.2579 43.8073 23.6526 47.7322 23.6526C51.0336 23.6526 53.528 21.4789 53.528 18.6052C53.528 16.2105 51.9507 14.4421 49.1628 13.8526ZM63.3955 16.0631C63.3955 16.1 63.3955 16.1368 63.3588 16.1737C63.3221 16.2105 63.2855 16.2105 63.2488 16.2105H58.15C58.1133 16.2105 58.0766 16.1737 58.0399 16.1737C58.0032 16.1368 58.0032 16.1 58.0032 16.0631C58.2233 14.9947 59.1404 13.9263 60.6444 13.9263C62.1483 13.8894 63.1754 14.7 63.3955 16.0631ZM60.6444 11.4947C57.9666 11.4947 55.1787 13.7421 55.1787 17.5368C55.1787 19.3421 55.7656 20.9263 56.9028 22.0316C57.9299 23.0631 59.3605 23.6526 60.9011 23.6526C63.2121 23.6526 65.0829 22.4368 65.8899 20.4105C65.9633 20.2263 65.9633 20.0421 65.8899 19.8947C65.8165 19.7473 65.6698 19.6 65.5231 19.5631L64.3859 19.1579C64.0925 19.0473 63.7256 19.1947 63.6156 19.4894C63.1387 20.6316 62.2217 21.221 60.9011 21.221C59.3238 21.221 58.1133 20.1526 57.8932 18.5684C57.8932 18.5316 57.8932 18.4947 57.9299 18.4579C57.9299 18.4579 57.9666 18.421 58.0399 18.421H65.4864C65.8165 18.421 66.11 18.1631 66.11 17.8316V17.5C66.1467 13.8158 64.0191 11.4947 60.6444 11.4947ZM73.3364 20.4842C71.5389 20.4842 70.4385 19.2316 70.4385 17.2421C70.4385 15.2526 71.5756 14 73.3364 14C75.0237 14 76.1976 15.2894 76.1976 17.2421C76.1609 19.1579 75.0237 20.4842 73.3364 20.4842ZM78.0684 11.8631H76.7111C76.381 11.8631 76.0875 12.1579 76.0875 12.5263C76.0875 12.5631 76.0508 12.6368 76.0142 12.6368C75.9775 12.6368 75.9408 12.6737 75.9041 12.6368C75.2071 12.0105 74.2167 11.6789 73.0062 11.6789C69.9616 11.6789 67.7607 14.0368 67.7607 17.2421C67.7607 20.4473 69.9616 22.8052 73.0062 22.8052C74.1434 22.8052 75.1705 22.4368 75.8674 21.7737C75.9041 21.7368 75.9775 21.7368 75.9775 21.7368C76.0142 21.7368 76.0508 21.7737 76.0508 21.8473V22.3263C76.0508 24.5737 75.0604 25.6052 72.9695 25.6052C71.649 25.6052 70.5852 24.7947 70.3284 23.5052C70.2917 23.321 70.1817 23.2105 70.035 23.1C69.8882 22.9894 69.7048 22.9894 69.5581 23.0263L68.2375 23.321C67.9074 23.3947 67.6873 23.7263 67.7607 24.0947C68.2375 26.4158 70.3284 28 72.9695 28C74.9504 28 76.4543 27.4105 77.4448 26.1947C78.2518 25.2 78.6919 23.8368 78.6919 22.2526V12.4894C78.7286 12.1579 78.4352 11.8631 78.0684 11.8631ZM94.0984 11.5316C92.5945 11.5316 91.384 12.0842 90.577 13.1526C90.5403 13.1894 90.5036 13.2263 90.4669 13.2263C90.4302 13.2263 90.3935 13.1894 90.3935 13.1894C89.7333 12.1579 88.5594 11.5316 87.2022 11.5316C86.1384 11.5316 85.0746 11.9 84.3777 12.5631C84.341 12.6 84.2676 12.6 84.2309 12.6C84.1943 12.5631 84.1576 12.5263 84.1576 12.4894C84.1576 12.121 83.8641 11.8631 83.534 11.8631H82.2134C81.8833 11.8631 81.5898 12.1579 81.5898 12.4894V22.6579C81.5898 23.0263 81.8833 23.2842 82.2134 23.2842H83.5707C83.9008 23.2842 84.1943 22.9894 84.1943 22.6579V16.4684C84.1943 14.9579 85.1113 13.9631 86.4686 13.9631C88.266 13.9631 88.5227 15.3631 88.5227 16.2105V22.6947C88.5227 23.0631 88.8162 23.321 89.1463 23.321H90.5036C90.8337 23.321 91.1272 23.0263 91.1272 22.6947V16.4316C91.1272 14.9579 92.0442 13.9263 93.4015 13.9263C95.1989 13.9263 95.4557 15.3263 95.4557 16.1737V22.6579C95.4557 23.0263 95.7491 23.2842 96.0793 23.2842H97.4365C97.8033 23.2842 98.0601 22.9894 98.0601 22.6579V15.9526C98.0968 12.8947 96.0793 11.5316 94.0984 11.5316ZM103.196 16.2105C103.159 16.2105 103.122 16.1737 103.086 16.1737C103.049 16.1368 103.049 16.1 103.049 16.0631C103.269 14.9947 104.186 13.9263 105.69 13.9263C107.157 13.9263 108.184 14.7368 108.404 16.0631C108.404 16.1 108.404 16.1368 108.368 16.1737C108.331 16.2105 108.294 16.2105 108.258 16.2105H103.196ZM105.69 11.5316C103.012 11.5316 100.224 13.7789 100.224 17.5737C100.224 19.3789 100.811 20.9631 101.948 22.0684C102.975 23.1 104.406 23.6526 105.947 23.6526C108.258 23.6526 110.092 22.4368 110.936 20.4105C111.009 20.2263 111.009 20.0421 110.936 19.8947C110.862 19.7473 110.715 19.6 110.569 19.5631L109.432 19.1579C109.101 19.0473 108.771 19.1947 108.661 19.4894C108.184 20.6316 107.267 21.221 105.947 21.221C104.369 21.221 103.159 20.1526 102.939 18.5684C102.939 18.5316 102.939 18.4947 102.976 18.4579C102.976 18.4579 103.012 18.421 103.086 18.421H110.532C110.862 18.421 111.156 18.1631 111.156 17.8316V17.5C111.156 13.8158 109.065 11.4947 105.69 11.5316ZM119.189 11.5316C118.052 11.5316 117.061 11.9368 116.291 12.6737C116.254 12.7105 116.218 12.7105 116.144 12.7105C116.108 12.6737 116.071 12.6368 116.071 12.6V12.5263C116.071 12.1579 115.778 11.9 115.447 11.9H114.127C113.76 11.9 113.503 12.1947 113.503 12.5263V22.6947C113.503 23.0631 113.797 23.321 114.127 23.321H115.484C115.851 23.321 116.108 23.0263 116.108 22.6947V16.7263C116.108 15.4 116.695 13.9631 118.382 13.9631C119.886 13.9631 120.656 14.8105 120.656 16.4684V22.6579C120.656 23.0263 120.95 23.2842 121.28 23.2842H122.637C123.004 23.2842 123.261 22.9894 123.261 22.6579V16.1368C123.334 13.3 121.757 11.5316 119.189 11.5316ZM129.717 14.2947H131.331C131.698 14.2947 131.954 14 131.954 13.6684V12.4894C131.954 12.121 131.661 11.8631 131.331 11.8631H129.717C129.643 11.8631 129.57 11.7894 129.57 11.7526V9.06313C129.57 8.69471 129.277 8.43682 128.946 8.43682H127.773C127.406 8.43682 127.149 8.73155 127.149 9.06313V10.4631C127.149 11.1263 126.892 11.9 125.718 11.9H125.498C125.131 11.9 124.875 12.1947 124.875 12.5263V13.7052C124.875 14.0737 125.168 14.3316 125.498 14.3316H126.819C126.892 14.3316 126.966 14.4052 126.966 14.4421V20.0789C126.966 22.1421 128.213 23.4316 130.267 23.4316C130.817 23.4316 131.257 23.3579 131.477 23.321C131.771 23.2473 131.954 22.9894 131.954 22.6947V21.6263C131.954 21.2579 131.661 21 131.331 21H131.257C131.111 21 130.964 21.0368 130.854 21.0368C129.937 21.0368 129.57 20.7052 129.57 19.7842V14.4421C129.57 14.3684 129.643 14.2947 129.717 14.2947Z" fill="#43AF79"/>
<path fill-rule="evenodd" clip-rule="evenodd" d="M29.1347 12.2315H11.564C10.757 12.2315 10.0967 11.5684 10.0967 10.7579C10.0967 9.94734 10.757 9.28418 11.564 9.28418H29.1347C29.9417 9.28418 30.602 9.94734 30.602 10.7579C30.602 11.5684 29.9417 12.2315 29.1347 12.2315Z" fill="#93C8A2"/>
<path fill-rule="evenodd" clip-rule="evenodd" d="M19.038 19.7474H1.46728C0.660278 19.7474 0 19.0842 0 18.2737C0 17.4631 0.660278 16.8 1.46728 16.8H19.038C19.845 16.8 20.5053 17.4631 20.5053 18.2737C20.5053 19.0842 19.845 19.7474 19.038 19.7474Z" fill="#93C8A2"/>
<path fill-rule="evenodd" clip-rule="evenodd" d="M3.16357 12.2316C2.35657 12.2316 1.69629 11.5684 1.69629 10.7579C1.69629 10.6105 1.73297 10.4631 1.76965 10.3158C3.60376 4.3105 9.06939 0.257874 15.342 0.257874C16.7726 0.257874 18.2032 0.478926 19.5605 0.884189C20.3308 1.14208 20.771 1.95261 20.5142 2.72629C20.2574 3.49998 19.4504 3.94208 18.6801 3.68419C17.6163 3.35261 16.4792 3.1684 15.342 3.1684C10.3533 3.1684 6.02478 6.37366 4.59418 11.1631C4.37408 11.7895 3.82385 12.2316 3.16357 12.2316Z" fill="#43AF79"/>
<path fill-rule="evenodd" clip-rule="evenodd" d="M27.7957 15.8666C28.6027 15.8666 29.2629 16.5298 29.2629 17.3403C29.2629 17.4877 29.2263 17.6351 29.1896 17.7824C27.3555 23.7877 21.8898 27.8403 15.6172 27.8403C14.1866 27.8403 12.756 27.6193 11.3988 27.214C10.6284 26.9561 10.1882 26.1456 10.445 25.3719C10.7018 24.5982 11.5088 24.1561 12.2791 24.414C13.3429 24.7456 14.4801 24.9298 15.6172 24.9298C20.606 24.9298 24.9345 21.7245 26.3651 16.9351C26.5851 16.3088 27.1354 15.8666 27.7957 15.8666Z" fill="#43AF79"/>
<path fill-rule="evenodd" clip-rule="evenodd" d="M25.5029 5.12102C25.5029 5.93155 24.8426 6.59471 24.0356 6.59471C23.2286 6.59471 22.5683 5.93155 22.5683 5.12102C22.5683 4.3105 23.2286 3.64734 24.0356 3.64734C24.8426 3.64734 25.5029 4.3105 25.5029 5.12102ZM8.07886 23.8368C8.07886 24.6473 7.41858 25.3105 6.61157 25.3105C5.80457 25.3105 5.14429 24.6473 5.14429 23.8368C5.14429 23.0263 5.80457 22.3631 6.61157 22.3631C7.41858 22.3631 8.07886 23.0263 8.07886 23.8368Z" fill="#93C8A2"/>
</g>
<defs>
<clipPath id="clip0_7_98">
<rect width="132" height="28" fill="white"/>
</clipPath>
</defs>
</svg>
